<?xml version="1.0" encoding="UTF-8" standalone="no"?>
<!DOCTYPE svg PUBLIC "-//W3C//DTD SVG 1.1//EN"
 "http://www.w3.org/Graphics/SVG/1.1/DTD/svg11.dtd">
<!-- Generated by graphviz version 2.44.0 ()
 -->
<!-- Title: D Pages: 1 -->
<svg width="242pt" height="116pt"
 viewBox="0.00 0.00 242.00 116.00" xmlns="http://www.w3.org/2000/svg" xmlns:xlink="http://www.w3.org/1999/xlink">
<g id="graph0" class="graph" transform="scale(1 1) rotate(0) translate(4 112)">
<title>D</title>
<polygon fill="white" stroke="transparent" points="-4,4 -4,-112 238,-112 238,4 -4,4"/>
<!-- A -->
<g id="node1" class="node">
<title>A</title>
<polygon fill="none" stroke="black" points="117,-108 90,-90 117,-72 144,-90 117,-108"/>
<text text-anchor="middle" x="117" y="-86.3" font-family="Times,serif" font-size="14.00">A</text>
</g>
<!-- B -->
<g id="node2" class="node">
<title>B</title>
<polygon fill="none" stroke="black" points="54,-36 0,-36 0,0 54,0 54,-36"/>
<text text-anchor="middle" x="27" y="-14.3" font-family="Times,serif" font-size="14.00">B</text>
</g>
<!-- A&#45;&gt;B -->
<g id="edge1" class="edge">
<title>A&#45;&gt;B</title>
<path fill="none" stroke="grey" stroke-dasharray="5,2" d="M104.86,-79.56C92.69,-70.09 73.45,-55.13 57.15,-42.45"/>
<polygon fill="grey" stroke="grey" points="58.99,-39.44 48.94,-36.07 54.69,-44.97 58.99,-39.44"/>
</g>
<!-- C -->
<g id="node3" class="node">
<title>C</title>
<ellipse fill="none" stroke="black" cx="90" cy="-18" rx="18" ry="18"/>
<text text-anchor="middle" x="90" y="-14.3" font-family="Times,serif" font-size="14.00">C</text>
</g>
<!-- A&#45;&gt;C -->
<g id="edge2" class="edge">
<title>A&#45;&gt;C</title>
<path fill="none" stroke="black" d="M109.8,-75.89C106.45,-67.19 102.01,-55.71 98.03,-45.38"/>
<path fill="none" stroke="transparent" d="M111.67,-75.17C108.31,-66.47 103.88,-54.99 99.9,-44.67"/>
<path fill="none" stroke="black" d="M113.53,-74.45C110.18,-65.75 105.75,-54.27 101.77,-43.95"/>
<polygon fill="black" stroke="black" points="103.13,-43.33 96.27,-35.26 96.6,-45.85 103.13,-43.33"/>
</g>
<!-- x -->
<g id="node4" class="node">
<title>x</title>
<ellipse fill="none" stroke="black" cx="144" cy="-18" rx="18" ry="18"/>
<text text-anchor="middle" x="144" y="-14.3" font-family="Times,serif" font-size="14.00">x</text>
</g>
<!-- A&#45;&gt;x -->
<g id="edge4" class="edge">
<title>A&#45;&gt;x</title>
<path fill="none" stroke="grey" stroke-dasharray="5,2" d="M122.33,-75.17C125.69,-66.47 130.12,-54.99 134.1,-44.67"/>
<polygon fill="grey" stroke="grey" points="137.4,-45.85 137.73,-35.26 130.87,-43.33 137.4,-45.85"/>
</g>
<!-- D -->
<g id="node5" class="node">
<title>D</title>
<ellipse fill="none" stroke="black" cx="207" cy="-18" rx="27" ry="18"/>
<text text-anchor="middle" x="207" y="-14.3" font-family="Times,serif" font-size="14.00">D</text>
</g>
<!-- A&#45;&gt;D -->
<g id="edge3" class="edge">
<title>A&#45;&gt;D</title>
<path fill="none" stroke="black" stroke-width="5" d="M129.14,-79.56C144.88,-67.32 172.4,-45.91 190.16,-32.1"/>
</g>
</g>
</svg>
